<mxfile host="app.diagrams.net" modified="2023-10-12T15:41:41.678Z" agent="Mozilla/5.0 (Macintosh; Intel Mac OS X 10_15_7) AppleWebKit/537.36 (KHTML, like Gecko) Chrome/118.0.0.0 Safari/537.36" etag="CmURvq3aHxOPQp2c8Si8" version="22.0.4" type="device">
  <diagram name="Page-1" id="0783ab3e-0a74-02c8-0abd-f7b4e66b4bec">
    <mxGraphModel dx="2868" dy="2630" grid="1" gridSize="10" guides="1" tooltips="1" connect="1" arrows="1" fold="1" page="1" pageScale="1" pageWidth="850" pageHeight="1100" background="none" math="0" shadow="0">
      <root>
        <mxCell id="0" />
        <mxCell id="1" parent="0" />
        <mxCell id="CZPg4X9r4VKvUBCXlL0o-1" value="" style="ellipse;html=1;shape=startState;fillColor=#000000;strokeColor=#ff0000;" vertex="1" parent="1">
          <mxGeometry x="540.85" y="-500" width="30" height="30" as="geometry" />
        </mxCell>
        <mxCell id="CZPg4X9r4VKvUBCXlL0o-3" value="Szene mit TabBarViewController als RootViewController erstellen" style="rounded=1;whiteSpace=wrap;html=1;arcSize=40;fontColor=#000000;fillColor=#ffffc0;strokeColor=#ff0000;" vertex="1" parent="1">
          <mxGeometry x="452.73" y="-370" width="206.25" height="50" as="geometry" />
        </mxCell>
        <mxCell id="CZPg4X9r4VKvUBCXlL0o-5" value="" style="ellipse;html=1;shape=endState;fillColor=#000000;strokeColor=#ff0000;" vertex="1" parent="1">
          <mxGeometry x="540.87" y="610" width="30" height="30" as="geometry" />
        </mxCell>
        <mxCell id="CZPg4X9r4VKvUBCXlL0o-11" value="Sonstiges-Tab wird ausgewählt" style="rhombus;whiteSpace=wrap;html=1;fontColor=#000000;fillColor=#ffffc0;strokeColor=#ff0000;align=center;spacing=12;" vertex="1" parent="1">
          <mxGeometry x="498.35" y="-60" width="115" height="80" as="geometry" />
        </mxCell>
        <mxCell id="CZPg4X9r4VKvUBCXlL0o-16" value="yes" style="edgeStyle=orthogonalEdgeStyle;html=1;align=left;verticalAlign=bottom;endArrow=open;endSize=8;strokeColor=#ff0000;rounded=0;exitX=1;exitY=0.5;exitDx=0;exitDy=0;entryX=0.25;entryY=0.5;entryDx=0;entryDy=0;entryPerimeter=0;" edge="1" source="CZPg4X9r4VKvUBCXlL0o-11" parent="1" target="CZPg4X9r4VKvUBCXlL0o-116">
          <mxGeometry x="-1" relative="1" as="geometry">
            <mxPoint x="669.86" y="-40" as="targetPoint" />
            <mxPoint x="635.86" as="sourcePoint" />
          </mxGeometry>
        </mxCell>
        <mxCell id="CZPg4X9r4VKvUBCXlL0o-17" value="no" style="edgeStyle=orthogonalEdgeStyle;html=1;align=left;verticalAlign=top;endArrow=open;endSize=8;strokeColor=#ff0000;rounded=0;exitX=0.5;exitY=1;exitDx=0;exitDy=0;entryX=0.5;entryY=0;entryDx=0;entryDy=0;" edge="1" source="CZPg4X9r4VKvUBCXlL0o-11" parent="1" target="CZPg4X9r4VKvUBCXlL0o-38">
          <mxGeometry x="-1" relative="1" as="geometry">
            <mxPoint x="555.86" y="50" as="targetPoint" />
            <mxPoint x="545.8600000000001" y="69.99999999999994" as="sourcePoint" />
          </mxGeometry>
        </mxCell>
        <mxCell id="CZPg4X9r4VKvUBCXlL0o-20" value="ImportedViewController laden" style="rounded=1;whiteSpace=wrap;html=1;arcSize=40;fontColor=#000000;fillColor=#ffffc0;strokeColor=#ff0000;" vertex="1" parent="1">
          <mxGeometry x="485.86" y="-160" width="140" height="40" as="geometry" />
        </mxCell>
        <mxCell id="CZPg4X9r4VKvUBCXlL0o-21" value="" style="edgeStyle=orthogonalEdgeStyle;html=1;verticalAlign=bottom;endArrow=open;endSize=8;strokeColor=#ff0000;rounded=0;entryX=0.5;entryY=0;entryDx=0;entryDy=0;" edge="1" source="CZPg4X9r4VKvUBCXlL0o-20" parent="1" target="CZPg4X9r4VKvUBCXlL0o-11">
          <mxGeometry relative="1" as="geometry">
            <mxPoint x="555.86" y="-10" as="targetPoint" />
          </mxGeometry>
        </mxCell>
        <mxCell id="CZPg4X9r4VKvUBCXlL0o-23" value="MiscViewController laden" style="rounded=1;whiteSpace=wrap;html=1;arcSize=40;fontColor=#000000;fillColor=#ffffc0;strokeColor=#ff0000;" vertex="1" parent="1">
          <mxGeometry x="749.86" y="-60" width="140" height="40" as="geometry" />
        </mxCell>
        <mxCell id="CZPg4X9r4VKvUBCXlL0o-27" value="Bild wird gedrückt" style="rhombus;whiteSpace=wrap;html=1;fontColor=#000000;fillColor=#ffffc0;strokeColor=#ff0000;align=center;spacing=12;" vertex="1" parent="1">
          <mxGeometry x="498.37" y="180" width="115" height="80" as="geometry" />
        </mxCell>
        <mxCell id="CZPg4X9r4VKvUBCXlL0o-28" value="yes" style="edgeStyle=orthogonalEdgeStyle;html=1;align=left;verticalAlign=bottom;endArrow=open;endSize=8;strokeColor=#ff0000;rounded=0;exitX=1;exitY=0.5;exitDx=0;exitDy=0;entryX=0;entryY=0.5;entryDx=0;entryDy=0;jumpStyle=arc;jumpSize=10;" edge="1" parent="1" source="CZPg4X9r4VKvUBCXlL0o-27" target="CZPg4X9r4VKvUBCXlL0o-30">
          <mxGeometry x="-1" relative="1" as="geometry">
            <mxPoint x="675.88" y="200" as="targetPoint" />
            <mxPoint x="635.88" y="270" as="sourcePoint" />
            <Array as="points">
              <mxPoint x="1509.86" y="220" />
              <mxPoint x="1509.86" y="-240" />
            </Array>
          </mxGeometry>
        </mxCell>
        <mxCell id="CZPg4X9r4VKvUBCXlL0o-29" value="no" style="edgeStyle=orthogonalEdgeStyle;html=1;align=left;verticalAlign=top;endArrow=open;endSize=8;strokeColor=#ff0000;rounded=0;exitX=0.5;exitY=1;exitDx=0;exitDy=0;entryX=0.5;entryY=0;entryDx=0;entryDy=0;" edge="1" parent="1" source="CZPg4X9r4VKvUBCXlL0o-27" target="CZPg4X9r4VKvUBCXlL0o-35">
          <mxGeometry x="-1" relative="1" as="geometry">
            <mxPoint x="555.88" y="290" as="targetPoint" />
            <mxPoint x="545.8800000000001" y="340" as="sourcePoint" />
          </mxGeometry>
        </mxCell>
        <mxCell id="CZPg4X9r4VKvUBCXlL0o-30" value="Bild gehört zu einem Video" style="rhombus;whiteSpace=wrap;html=1;fontColor=#000000;fillColor=#ffffc0;strokeColor=#ff0000;align=center;spacing=12;" vertex="1" parent="1">
          <mxGeometry x="1657.36" y="-280" width="115" height="80" as="geometry" />
        </mxCell>
        <mxCell id="CZPg4X9r4VKvUBCXlL0o-31" value="yes" style="edgeStyle=orthogonalEdgeStyle;html=1;align=left;verticalAlign=bottom;endArrow=open;endSize=8;strokeColor=#ff0000;rounded=0;exitX=1;exitY=0.5;exitDx=0;exitDy=0;entryX=0;entryY=0.5;entryDx=0;entryDy=0;" edge="1" parent="1" source="CZPg4X9r4VKvUBCXlL0o-30" target="CZPg4X9r4VKvUBCXlL0o-33">
          <mxGeometry x="-1" relative="1" as="geometry">
            <mxPoint x="1864.86" y="-260" as="targetPoint" />
            <mxPoint x="1824.86" y="-190" as="sourcePoint" />
          </mxGeometry>
        </mxCell>
        <mxCell id="CZPg4X9r4VKvUBCXlL0o-32" value="no" style="edgeStyle=orthogonalEdgeStyle;html=1;align=left;verticalAlign=top;endArrow=open;endSize=8;strokeColor=#ff0000;rounded=0;exitX=0.5;exitY=1;exitDx=0;exitDy=0;entryX=0.5;entryY=0;entryDx=0;entryDy=0;" edge="1" parent="1" source="CZPg4X9r4VKvUBCXlL0o-30" target="CZPg4X9r4VKvUBCXlL0o-34">
          <mxGeometry x="-1" relative="1" as="geometry">
            <mxPoint x="1744.86" y="-150" as="targetPoint" />
            <mxPoint x="1734.86" y="-120" as="sourcePoint" />
          </mxGeometry>
        </mxCell>
        <mxCell id="CZPg4X9r4VKvUBCXlL0o-33" value="VideoViewController laden" style="rounded=1;whiteSpace=wrap;html=1;arcSize=40;fontColor=#000000;fillColor=#ffffc0;strokeColor=#ff0000;" vertex="1" parent="1">
          <mxGeometry x="1814.86" y="-260" width="140" height="40" as="geometry" />
        </mxCell>
        <mxCell id="CZPg4X9r4VKvUBCXlL0o-34" value="PhotoViewController laden" style="rounded=1;whiteSpace=wrap;html=1;arcSize=40;fontColor=#000000;fillColor=#ffffc0;strokeColor=#ff0000;" vertex="1" parent="1">
          <mxGeometry x="1644.86" y="-170" width="140" height="40" as="geometry" />
        </mxCell>
        <mxCell id="CZPg4X9r4VKvUBCXlL0o-35" value="Filter-Button wird gedrückt" style="rhombus;whiteSpace=wrap;html=1;fontColor=#000000;fillColor=#ffffc0;strokeColor=#ff0000;align=center;spacing=12;" vertex="1" parent="1">
          <mxGeometry x="498.36" y="300" width="115" height="80" as="geometry" />
        </mxCell>
        <mxCell id="CZPg4X9r4VKvUBCXlL0o-36" value="yes" style="edgeStyle=orthogonalEdgeStyle;html=1;align=left;verticalAlign=bottom;endArrow=open;endSize=8;strokeColor=#ff0000;rounded=0;exitX=1;exitY=0.5;exitDx=0;exitDy=0;entryX=0;entryY=0.5;entryDx=0;entryDy=0;" edge="1" parent="1" source="CZPg4X9r4VKvUBCXlL0o-35" target="CZPg4X9r4VKvUBCXlL0o-45">
          <mxGeometry x="-1" relative="1" as="geometry">
            <mxPoint x="659.86" y="340" as="targetPoint" />
            <mxPoint x="635.86" y="480" as="sourcePoint" />
          </mxGeometry>
        </mxCell>
        <mxCell id="CZPg4X9r4VKvUBCXlL0o-37" value="no" style="edgeStyle=orthogonalEdgeStyle;html=1;align=left;verticalAlign=top;endArrow=open;endSize=8;strokeColor=#ff0000;rounded=0;exitX=0.5;exitY=1;exitDx=0;exitDy=0;entryX=0.5;entryY=0;entryDx=0;entryDy=0;" edge="1" parent="1" source="CZPg4X9r4VKvUBCXlL0o-35" target="CZPg4X9r4VKvUBCXlL0o-109">
          <mxGeometry x="-1" relative="1" as="geometry">
            <mxPoint x="555.86" y="450" as="targetPoint" />
            <mxPoint x="545.8600000000001" y="550" as="sourcePoint" />
          </mxGeometry>
        </mxCell>
        <mxCell id="CZPg4X9r4VKvUBCXlL0o-38" value="Gallerie-Button wird gedrückt" style="rhombus;whiteSpace=wrap;html=1;fontColor=#000000;fillColor=#ffffc0;strokeColor=#ff0000;align=center;spacing=12;" vertex="1" parent="1">
          <mxGeometry x="498.35" y="60" width="115" height="80" as="geometry" />
        </mxCell>
        <mxCell id="CZPg4X9r4VKvUBCXlL0o-39" value="yes" style="edgeStyle=orthogonalEdgeStyle;html=1;align=left;verticalAlign=bottom;endArrow=open;endSize=8;strokeColor=#ff0000;rounded=0;exitX=0;exitY=0.5;exitDx=0;exitDy=0;entryX=1;entryY=0.5;entryDx=0;entryDy=0;" edge="1" parent="1" source="CZPg4X9r4VKvUBCXlL0o-38" target="CZPg4X9r4VKvUBCXlL0o-41">
          <mxGeometry x="-0.1429" relative="1" as="geometry">
            <mxPoint x="445.85" y="100" as="targetPoint" />
            <mxPoint x="635.85" y="200" as="sourcePoint" />
            <Array as="points" />
            <mxPoint as="offset" />
          </mxGeometry>
        </mxCell>
        <mxCell id="CZPg4X9r4VKvUBCXlL0o-40" value="no" style="edgeStyle=orthogonalEdgeStyle;html=1;align=left;verticalAlign=top;endArrow=open;endSize=8;strokeColor=#ff0000;rounded=0;exitX=0.5;exitY=1;exitDx=0;exitDy=0;entryX=0.5;entryY=0;entryDx=0;entryDy=0;" edge="1" parent="1" source="CZPg4X9r4VKvUBCXlL0o-38" target="CZPg4X9r4VKvUBCXlL0o-27">
          <mxGeometry x="-1" relative="1" as="geometry">
            <mxPoint x="555.85" y="170" as="targetPoint" />
            <mxPoint x="545.8500000000001" y="270" as="sourcePoint" />
          </mxGeometry>
        </mxCell>
        <mxCell id="CZPg4X9r4VKvUBCXlL0o-41" value="PhotoPickerViewController laden" style="rounded=1;whiteSpace=wrap;html=1;arcSize=40;fontColor=#000000;fillColor=#ffffc0;strokeColor=#ff0000;" vertex="1" parent="1">
          <mxGeometry x="309.86" y="80" width="150" height="40" as="geometry" />
        </mxCell>
        <mxCell id="CZPg4X9r4VKvUBCXlL0o-42" value="App starten" style="rounded=1;whiteSpace=wrap;html=1;arcSize=40;fontColor=#000000;fillColor=#ffffc0;strokeColor=#ff0000;" vertex="1" parent="1">
          <mxGeometry x="515.85" y="-440" width="80" height="40" as="geometry" />
        </mxCell>
        <mxCell id="CZPg4X9r4VKvUBCXlL0o-45" value="FilterViewController laden" style="rounded=1;whiteSpace=wrap;html=1;arcSize=40;fontColor=#000000;fillColor=#ffffc0;strokeColor=#ff0000;" vertex="1" parent="1">
          <mxGeometry x="643.36" y="320" width="146.5" height="40" as="geometry" />
        </mxCell>
        <mxCell id="CZPg4X9r4VKvUBCXlL0o-46" value="App beenden" style="rounded=1;whiteSpace=wrap;html=1;arcSize=40;fontColor=#000000;fillColor=#ffffc0;strokeColor=#ff0000;" vertex="1" parent="1">
          <mxGeometry x="507.25" y="540" width="97.25" height="40" as="geometry" />
        </mxCell>
        <mxCell id="CZPg4X9r4VKvUBCXlL0o-47" value="" style="edgeStyle=orthogonalEdgeStyle;html=1;verticalAlign=bottom;endArrow=open;endSize=8;strokeColor=#ff0000;rounded=0;entryX=0.5;entryY=0;entryDx=0;entryDy=0;exitX=0.5;exitY=1;exitDx=0;exitDy=0;" edge="1" parent="1" source="CZPg4X9r4VKvUBCXlL0o-46" target="CZPg4X9r4VKvUBCXlL0o-5">
          <mxGeometry relative="1" as="geometry">
            <mxPoint x="555.53" y="620" as="targetPoint" />
            <mxPoint x="555.53" y="590" as="sourcePoint" />
            <Array as="points" />
          </mxGeometry>
        </mxCell>
        <mxCell id="CZPg4X9r4VKvUBCXlL0o-54" value="Papierkorb-Button wird gedrückt" style="rhombus;whiteSpace=wrap;html=1;fontColor=#000000;fillColor=#ffffc0;strokeColor=#ff0000;align=center;spacing=12;" vertex="1" parent="1">
          <mxGeometry x="919.86" y="-80" width="115" height="80" as="geometry" />
        </mxCell>
        <mxCell id="CZPg4X9r4VKvUBCXlL0o-55" value="no" style="edgeStyle=orthogonalEdgeStyle;html=1;align=left;verticalAlign=bottom;endArrow=open;endSize=8;strokeColor=#ff0000;rounded=0;exitX=0.5;exitY=0;exitDx=0;exitDy=0;entryX=0.5;entryY=1;entryDx=0;entryDy=0;" edge="1" parent="1" source="CZPg4X9r4VKvUBCXlL0o-54" target="CZPg4X9r4VKvUBCXlL0o-58">
          <mxGeometry x="-0.1429" relative="1" as="geometry">
            <mxPoint x="1019.86" y="-180" as="targetPoint" />
            <mxPoint x="1099.86" y="30" as="sourcePoint" />
            <Array as="points" />
            <mxPoint as="offset" />
          </mxGeometry>
        </mxCell>
        <mxCell id="CZPg4X9r4VKvUBCXlL0o-56" value="yes" style="edgeStyle=orthogonalEdgeStyle;html=1;align=left;verticalAlign=top;endArrow=open;endSize=8;strokeColor=#ff0000;rounded=0;exitX=1;exitY=0.5;exitDx=0;exitDy=0;entryX=0.75;entryY=0.5;entryDx=0;entryDy=0;entryPerimeter=0;" edge="1" parent="1" source="CZPg4X9r4VKvUBCXlL0o-54" target="CZPg4X9r4VKvUBCXlL0o-131">
          <mxGeometry x="-1" relative="1" as="geometry">
            <mxPoint x="1089.86" y="-40" as="targetPoint" />
            <mxPoint x="1009.8600000000001" y="100" as="sourcePoint" />
          </mxGeometry>
        </mxCell>
        <mxCell id="CZPg4X9r4VKvUBCXlL0o-57" value="" style="edgeStyle=orthogonalEdgeStyle;html=1;verticalAlign=bottom;endArrow=open;endSize=8;strokeColor=#ff0000;rounded=0;entryX=0;entryY=0.5;entryDx=0;entryDy=0;exitX=1;exitY=0.5;exitDx=0;exitDy=0;" edge="1" parent="1" source="CZPg4X9r4VKvUBCXlL0o-23" target="CZPg4X9r4VKvUBCXlL0o-54">
          <mxGeometry relative="1" as="geometry">
            <mxPoint x="933.86" y="-20" as="targetPoint" />
            <mxPoint x="933.86" y="-50" as="sourcePoint" />
          </mxGeometry>
        </mxCell>
        <mxCell id="CZPg4X9r4VKvUBCXlL0o-58" value="Importiert-Tab auswählen" style="rounded=1;whiteSpace=wrap;html=1;arcSize=40;fontColor=#000000;fillColor=#ffffc0;strokeColor=#ff0000;" vertex="1" parent="1">
          <mxGeometry x="902.36" y="-160" width="150" height="40" as="geometry" />
        </mxCell>
        <mxCell id="CZPg4X9r4VKvUBCXlL0o-59" value="TrashViewController laden" style="rounded=1;whiteSpace=wrap;html=1;arcSize=40;fontColor=#000000;fillColor=#ffffc0;strokeColor=#ff0000;" vertex="1" parent="1">
          <mxGeometry x="1129.86" y="-40" width="150" height="40" as="geometry" />
        </mxCell>
        <mxCell id="CZPg4X9r4VKvUBCXlL0o-66" value="" style="edgeStyle=orthogonalEdgeStyle;html=1;verticalAlign=bottom;endArrow=open;endSize=8;strokeColor=#ff0000;rounded=0;exitX=0.5;exitY=1;exitDx=0;exitDy=0;entryX=0.5;entryY=0;entryDx=0;entryDy=0;" edge="1" parent="1" source="CZPg4X9r4VKvUBCXlL0o-42" target="CZPg4X9r4VKvUBCXlL0o-3">
          <mxGeometry relative="1" as="geometry">
            <mxPoint x="479.86" y="-380" as="targetPoint" />
            <mxPoint x="479.86" y="-410" as="sourcePoint" />
          </mxGeometry>
        </mxCell>
        <mxCell id="CZPg4X9r4VKvUBCXlL0o-67" value="" style="edgeStyle=orthogonalEdgeStyle;html=1;verticalAlign=bottom;endArrow=open;endSize=8;strokeColor=#ff0000;rounded=0;exitX=0.5;exitY=1;exitDx=0;exitDy=0;entryX=0.5;entryY=0;entryDx=0;entryDy=0;" edge="1" parent="1" source="CZPg4X9r4VKvUBCXlL0o-1" target="CZPg4X9r4VKvUBCXlL0o-42">
          <mxGeometry relative="1" as="geometry">
            <mxPoint x="479.69" y="-470" as="targetPoint" />
            <mxPoint x="479.69" y="-520" as="sourcePoint" />
          </mxGeometry>
        </mxCell>
        <mxCell id="CZPg4X9r4VKvUBCXlL0o-68" value="" style="shape=line;html=1;strokeWidth=6;strokeColor=#ff0000;" vertex="1" parent="1">
          <mxGeometry x="450.97" y="-200" width="208.01" height="10" as="geometry" />
        </mxCell>
        <mxCell id="CZPg4X9r4VKvUBCXlL0o-69" value="" style="edgeStyle=orthogonalEdgeStyle;html=1;verticalAlign=bottom;endArrow=open;endSize=8;strokeColor=#ff0000;rounded=0;entryX=0.5;entryY=0;entryDx=0;entryDy=0;" edge="1" source="CZPg4X9r4VKvUBCXlL0o-68" parent="1" target="CZPg4X9r4VKvUBCXlL0o-20">
          <mxGeometry relative="1" as="geometry">
            <mxPoint x="350.86" y="-90" as="targetPoint" />
          </mxGeometry>
        </mxCell>
        <mxCell id="CZPg4X9r4VKvUBCXlL0o-73" value="" style="edgeStyle=orthogonalEdgeStyle;html=1;verticalAlign=bottom;endArrow=open;endSize=8;strokeColor=#ff0000;rounded=0;exitX=0.5;exitY=1;exitDx=0;exitDy=0;" edge="1" parent="1" source="CZPg4X9r4VKvUBCXlL0o-3" target="CZPg4X9r4VKvUBCXlL0o-68">
          <mxGeometry relative="1" as="geometry">
            <mxPoint x="499.86" y="-220" as="targetPoint" />
            <mxPoint x="519.86" y="-270" as="sourcePoint" />
          </mxGeometry>
        </mxCell>
        <mxCell id="CZPg4X9r4VKvUBCXlL0o-74" value="Medien werden ausgewählt" style="rhombus;whiteSpace=wrap;html=1;fontColor=#000000;fillColor=#ffffc0;strokeColor=#ff0000;align=center;spacing=12;" vertex="1" parent="1">
          <mxGeometry x="167.36" y="60" width="115" height="80" as="geometry" />
        </mxCell>
        <mxCell id="CZPg4X9r4VKvUBCXlL0o-75" value="yes" style="edgeStyle=orthogonalEdgeStyle;html=1;align=left;verticalAlign=bottom;endArrow=open;endSize=8;strokeColor=#ff0000;rounded=0;entryX=0.5;entryY=1;entryDx=0;entryDy=0;exitX=0.5;exitY=0;exitDx=0;exitDy=0;" edge="1" parent="1" source="CZPg4X9r4VKvUBCXlL0o-74" target="CZPg4X9r4VKvUBCXlL0o-80">
          <mxGeometry x="-1" relative="1" as="geometry">
            <mxPoint x="244.35" y="40" as="targetPoint" />
            <mxPoint x="216.85" y="-10" as="sourcePoint" />
          </mxGeometry>
        </mxCell>
        <mxCell id="CZPg4X9r4VKvUBCXlL0o-76" value="no" style="edgeStyle=orthogonalEdgeStyle;html=1;align=left;verticalAlign=top;endArrow=open;endSize=8;strokeColor=#ff0000;rounded=0;exitX=0;exitY=0.5;exitDx=0;exitDy=0;entryX=1;entryY=0.5;entryDx=0;entryDy=0;labelBackgroundColor=none;" edge="1" parent="1" source="CZPg4X9r4VKvUBCXlL0o-74" target="CZPg4X9r4VKvUBCXlL0o-78">
          <mxGeometry x="0.3333" y="-20" relative="1" as="geometry">
            <mxPoint x="39.849999999999994" y="100" as="targetPoint" />
            <mxPoint x="112.35" y="100" as="sourcePoint" />
            <mxPoint as="offset" />
          </mxGeometry>
        </mxCell>
        <mxCell id="CZPg4X9r4VKvUBCXlL0o-77" value="" style="edgeStyle=orthogonalEdgeStyle;html=1;verticalAlign=bottom;endArrow=open;endSize=8;strokeColor=#ff0000;rounded=0;entryX=1;entryY=0.5;entryDx=0;entryDy=0;exitX=0;exitY=0.5;exitDx=0;exitDy=0;" edge="1" parent="1" source="CZPg4X9r4VKvUBCXlL0o-41" target="CZPg4X9r4VKvUBCXlL0o-74">
          <mxGeometry relative="1" as="geometry">
            <mxPoint x="269.85" y="120" as="targetPoint" />
            <mxPoint x="269.85" y="80" as="sourcePoint" />
          </mxGeometry>
        </mxCell>
        <mxCell id="CZPg4X9r4VKvUBCXlL0o-78" value="Auswahl abbrechen" style="rounded=1;whiteSpace=wrap;html=1;arcSize=40;fontColor=#000000;fillColor=#ffffc0;strokeColor=#ff0000;" vertex="1" parent="1">
          <mxGeometry x="29.86" y="80" width="120" height="40" as="geometry" />
        </mxCell>
        <mxCell id="CZPg4X9r4VKvUBCXlL0o-80" value="Medien importieren" style="rounded=1;whiteSpace=wrap;html=1;arcSize=40;fontColor=#000000;fillColor=#ffffc0;strokeColor=#ff0000;" vertex="1" parent="1">
          <mxGeometry x="164.86" y="-15" width="120" height="40" as="geometry" />
        </mxCell>
        <mxCell id="CZPg4X9r4VKvUBCXlL0o-81" value="" style="edgeStyle=orthogonalEdgeStyle;html=1;verticalAlign=bottom;endArrow=open;endSize=8;strokeColor=#ff0000;rounded=0;exitX=0.5;exitY=0;exitDx=0;exitDy=0;entryX=0.75;entryY=0.5;entryDx=0;entryDy=0;entryPerimeter=0;" edge="1" parent="1" source="CZPg4X9r4VKvUBCXlL0o-80" target="CZPg4X9r4VKvUBCXlL0o-163">
          <mxGeometry relative="1" as="geometry">
            <mxPoint x="227.86" y="-70" as="targetPoint" />
            <mxPoint x="187.06" y="40" as="sourcePoint" />
          </mxGeometry>
        </mxCell>
        <mxCell id="CZPg4X9r4VKvUBCXlL0o-82" value="" style="edgeStyle=orthogonalEdgeStyle;html=1;verticalAlign=bottom;endArrow=open;endSize=8;strokeColor=#ff0000;rounded=0;exitX=0.5;exitY=0;exitDx=0;exitDy=0;entryX=0.25;entryY=0.5;entryDx=0;entryDy=0;entryPerimeter=0;" edge="1" parent="1" source="CZPg4X9r4VKvUBCXlL0o-78" target="CZPg4X9r4VKvUBCXlL0o-163">
          <mxGeometry relative="1" as="geometry">
            <mxPoint x="199.86" y="-70" as="targetPoint" />
            <mxPoint x="-130.14" y="170" as="sourcePoint" />
            <Array as="points">
              <mxPoint x="89.86" y="-40" />
              <mxPoint x="194.86" y="-40" />
            </Array>
          </mxGeometry>
        </mxCell>
        <mxCell id="CZPg4X9r4VKvUBCXlL0o-83" value="" style="edgeStyle=orthogonalEdgeStyle;html=1;verticalAlign=bottom;endArrow=open;endSize=8;strokeColor=#ff0000;rounded=0;exitX=1;exitY=0.5;exitDx=0;exitDy=0;jumpStyle=arc;jumpSize=10;" edge="1" parent="1" source="CZPg4X9r4VKvUBCXlL0o-159" target="CZPg4X9r4VKvUBCXlL0o-68">
          <mxGeometry relative="1" as="geometry">
            <mxPoint x="1079.86" y="-180" as="targetPoint" />
            <mxPoint x="1239.86" y="-180" as="sourcePoint" />
            <Array as="points">
              <mxPoint x="1559.86" y="370" />
              <mxPoint x="1559.86" y="-270" />
              <mxPoint x="629.86" y="-270" />
            </Array>
          </mxGeometry>
        </mxCell>
        <mxCell id="CZPg4X9r4VKvUBCXlL0o-85" value="Einstellungen speichern" style="rounded=1;whiteSpace=wrap;html=1;arcSize=40;fontColor=#000000;fillColor=#ffffc0;strokeColor=#ff0000;" vertex="1" parent="1">
          <mxGeometry x="986.86" y="320" width="136" height="40" as="geometry" />
        </mxCell>
        <mxCell id="CZPg4X9r4VKvUBCXlL0o-86" value="Filter-Button drücken" style="rounded=1;whiteSpace=wrap;html=1;arcSize=40;fontColor=#000000;fillColor=#ffffc0;strokeColor=#ff0000;" vertex="1" parent="1">
          <mxGeometry x="1249.86" y="350" width="120" height="40" as="geometry" />
        </mxCell>
        <mxCell id="CZPg4X9r4VKvUBCXlL0o-90" value="Einstellungen werden geändert" style="rhombus;whiteSpace=wrap;html=1;fontColor=#000000;fillColor=#ffffc0;strokeColor=#ff0000;align=center;spacing=12;" vertex="1" parent="1">
          <mxGeometry x="825.86" y="300" width="115" height="80" as="geometry" />
        </mxCell>
        <mxCell id="CZPg4X9r4VKvUBCXlL0o-91" value="yes" style="edgeStyle=orthogonalEdgeStyle;html=1;align=left;verticalAlign=bottom;endArrow=open;endSize=8;strokeColor=#ff0000;rounded=0;exitX=1;exitY=0.5;exitDx=0;exitDy=0;entryX=0;entryY=0.5;entryDx=0;entryDy=0;" edge="1" parent="1" source="CZPg4X9r4VKvUBCXlL0o-90" target="CZPg4X9r4VKvUBCXlL0o-85">
          <mxGeometry x="-1" relative="1" as="geometry">
            <mxPoint x="971.36" y="360" as="targetPoint" />
            <mxPoint x="963.36" y="500" as="sourcePoint" />
          </mxGeometry>
        </mxCell>
        <mxCell id="CZPg4X9r4VKvUBCXlL0o-99" value="" style="shape=line;html=1;strokeWidth=6;strokeColor=#ff0000;rotation=90;" vertex="1" parent="1">
          <mxGeometry x="1179.86" y="365" width="80" height="10" as="geometry" />
        </mxCell>
        <mxCell id="CZPg4X9r4VKvUBCXlL0o-102" value="" style="edgeStyle=orthogonalEdgeStyle;html=1;verticalAlign=bottom;endArrow=open;endSize=8;strokeColor=#ff0000;rounded=0;entryX=0;entryY=0.5;entryDx=0;entryDy=0;" edge="1" source="CZPg4X9r4VKvUBCXlL0o-99" parent="1" target="CZPg4X9r4VKvUBCXlL0o-86">
          <mxGeometry relative="1" as="geometry">
            <mxPoint x="1115.86" y="470" as="targetPoint" />
            <mxPoint x="1219.86" y="360" as="sourcePoint" />
          </mxGeometry>
        </mxCell>
        <mxCell id="CZPg4X9r4VKvUBCXlL0o-105" value="" style="edgeStyle=orthogonalEdgeStyle;html=1;verticalAlign=bottom;endArrow=open;endSize=8;strokeColor=#ff0000;rounded=0;entryX=0.25;entryY=0.5;entryDx=0;entryDy=0;entryPerimeter=0;exitX=1;exitY=0.5;exitDx=0;exitDy=0;" edge="1" parent="1" source="CZPg4X9r4VKvUBCXlL0o-85" target="CZPg4X9r4VKvUBCXlL0o-99">
          <mxGeometry relative="1" as="geometry">
            <mxPoint x="1194.86" y="350" as="targetPoint" />
            <mxPoint x="1139.86" y="330" as="sourcePoint" />
            <Array as="points">
              <mxPoint x="1169.86" y="340" />
              <mxPoint x="1169.86" y="350" />
            </Array>
          </mxGeometry>
        </mxCell>
        <mxCell id="CZPg4X9r4VKvUBCXlL0o-107" value="no" style="edgeStyle=orthogonalEdgeStyle;html=1;align=left;verticalAlign=bottom;endArrow=open;endSize=8;strokeColor=#ff0000;rounded=0;exitX=0.5;exitY=1;exitDx=0;exitDy=0;entryX=0.75;entryY=0.5;entryDx=0;entryDy=0;entryPerimeter=0;" edge="1" parent="1" source="CZPg4X9r4VKvUBCXlL0o-90" target="CZPg4X9r4VKvUBCXlL0o-99">
          <mxGeometry x="-0.9048" relative="1" as="geometry">
            <mxPoint x="1175.86" y="390" as="targetPoint" />
            <mxPoint x="1129.86" y="390" as="sourcePoint" />
            <mxPoint as="offset" />
          </mxGeometry>
        </mxCell>
        <mxCell id="CZPg4X9r4VKvUBCXlL0o-108" value="" style="edgeStyle=orthogonalEdgeStyle;html=1;verticalAlign=bottom;endArrow=open;endSize=8;strokeColor=#ff0000;rounded=0;entryX=0;entryY=0.5;entryDx=0;entryDy=0;exitX=1;exitY=0.5;exitDx=0;exitDy=0;" edge="1" parent="1" source="CZPg4X9r4VKvUBCXlL0o-45" target="CZPg4X9r4VKvUBCXlL0o-90">
          <mxGeometry relative="1" as="geometry">
            <mxPoint x="820.86" y="380" as="targetPoint" />
            <mxPoint x="795.86" y="380" as="sourcePoint" />
          </mxGeometry>
        </mxCell>
        <mxCell id="CZPg4X9r4VKvUBCXlL0o-109" value="Bild(er) werden angewählt" style="rhombus;whiteSpace=wrap;html=1;fontColor=#000000;fillColor=#ffffc0;strokeColor=#ff0000;align=center;spacing=12;" vertex="1" parent="1">
          <mxGeometry x="498.37" y="420" width="115" height="80" as="geometry" />
        </mxCell>
        <mxCell id="CZPg4X9r4VKvUBCXlL0o-110" value="yes" style="edgeStyle=orthogonalEdgeStyle;html=1;align=left;verticalAlign=bottom;endArrow=open;endSize=8;strokeColor=#ff0000;rounded=0;exitX=0;exitY=0.5;exitDx=0;exitDy=0;entryX=1;entryY=0.5;entryDx=0;entryDy=0;" edge="1" parent="1" source="CZPg4X9r4VKvUBCXlL0o-109" target="CZPg4X9r4VKvUBCXlL0o-112">
          <mxGeometry x="0.1565" relative="1" as="geometry">
            <mxPoint x="643.86" y="520" as="targetPoint" />
            <mxPoint x="635.86" y="660" as="sourcePoint" />
            <mxPoint as="offset" />
          </mxGeometry>
        </mxCell>
        <mxCell id="CZPg4X9r4VKvUBCXlL0o-111" value="no" style="edgeStyle=orthogonalEdgeStyle;html=1;align=left;verticalAlign=top;endArrow=open;endSize=8;strokeColor=#ff0000;rounded=0;exitX=0.5;exitY=1;exitDx=0;exitDy=0;entryX=0.5;entryY=0;entryDx=0;entryDy=0;" edge="1" parent="1" source="CZPg4X9r4VKvUBCXlL0o-109" target="CZPg4X9r4VKvUBCXlL0o-46">
          <mxGeometry x="-1" relative="1" as="geometry">
            <mxPoint x="555.86" y="630" as="targetPoint" />
            <mxPoint x="545.8600000000001" y="730" as="sourcePoint" />
          </mxGeometry>
        </mxCell>
        <mxCell id="CZPg4X9r4VKvUBCXlL0o-112" value="Compare-Button drücken" style="rounded=1;whiteSpace=wrap;html=1;arcSize=40;fontColor=#000000;fillColor=#ffffc0;strokeColor=#ff0000;" vertex="1" parent="1">
          <mxGeometry x="319.86" y="440" width="146.5" height="40" as="geometry" />
        </mxCell>
        <mxCell id="CZPg4X9r4VKvUBCXlL0o-113" value="PhotoComparisonViewController laden" style="rounded=1;whiteSpace=wrap;html=1;arcSize=40;fontColor=#000000;fillColor=#ffffc0;strokeColor=#ff0000;" vertex="1" parent="1">
          <mxGeometry x="94.86" y="440" width="190" height="40" as="geometry" />
        </mxCell>
        <mxCell id="CZPg4X9r4VKvUBCXlL0o-114" value="" style="edgeStyle=orthogonalEdgeStyle;html=1;verticalAlign=bottom;endArrow=open;endSize=8;strokeColor=#ff0000;rounded=0;entryX=1;entryY=0.5;entryDx=0;entryDy=0;exitX=0;exitY=0.5;exitDx=0;exitDy=0;" edge="1" parent="1" source="CZPg4X9r4VKvUBCXlL0o-112" target="CZPg4X9r4VKvUBCXlL0o-113">
          <mxGeometry relative="1" as="geometry">
            <mxPoint x="282.36" y="410" as="targetPoint" />
            <mxPoint x="99.86" y="520" as="sourcePoint" />
          </mxGeometry>
        </mxCell>
        <mxCell id="CZPg4X9r4VKvUBCXlL0o-115" value="" style="edgeStyle=orthogonalEdgeStyle;html=1;verticalAlign=bottom;endArrow=open;endSize=8;strokeColor=#ff0000;rounded=0;exitX=0.5;exitY=0;exitDx=0;exitDy=0;" edge="1" parent="1" source="CZPg4X9r4VKvUBCXlL0o-58" target="CZPg4X9r4VKvUBCXlL0o-68">
          <mxGeometry relative="1" as="geometry">
            <mxPoint x="825.86" y="-220" as="targetPoint" />
            <mxPoint x="825.86" y="-250" as="sourcePoint" />
            <Array as="points">
              <mxPoint x="977.86" y="-230" />
              <mxPoint x="649.86" y="-230" />
            </Array>
          </mxGeometry>
        </mxCell>
        <mxCell id="CZPg4X9r4VKvUBCXlL0o-116" value="" style="shape=line;html=1;strokeWidth=6;strokeColor=#ff0000;rotation=-90;" vertex="1" parent="1">
          <mxGeometry x="669.86" y="-45" width="80" height="10" as="geometry" />
        </mxCell>
        <mxCell id="CZPg4X9r4VKvUBCXlL0o-119" value="" style="edgeStyle=orthogonalEdgeStyle;html=1;verticalAlign=bottom;endArrow=open;endSize=8;strokeColor=#ff0000;rounded=0;entryX=0;entryY=0.5;entryDx=0;entryDy=0;" edge="1" parent="1" source="CZPg4X9r4VKvUBCXlL0o-116" target="CZPg4X9r4VKvUBCXlL0o-23">
          <mxGeometry relative="1" as="geometry">
            <mxPoint x="716.3100000000001" y="-100" as="targetPoint" />
            <mxPoint x="716.3100000000001" y="-140" as="sourcePoint" />
          </mxGeometry>
        </mxCell>
        <mxCell id="CZPg4X9r4VKvUBCXlL0o-120" value="Bild wird gedrückt" style="rhombus;whiteSpace=wrap;html=1;fontColor=#000000;fillColor=#ffffc0;strokeColor=#ff0000;align=center;spacing=12;" vertex="1" parent="1">
          <mxGeometry x="1316.86" y="-60" width="115" height="80" as="geometry" />
        </mxCell>
        <mxCell id="CZPg4X9r4VKvUBCXlL0o-121" value="no" style="edgeStyle=orthogonalEdgeStyle;html=1;align=left;verticalAlign=bottom;endArrow=open;endSize=8;strokeColor=#ff0000;rounded=0;exitX=0.5;exitY=0;exitDx=0;exitDy=0;entryX=0.5;entryY=1;entryDx=0;entryDy=0;" edge="1" parent="1" source="CZPg4X9r4VKvUBCXlL0o-120" target="CZPg4X9r4VKvUBCXlL0o-126">
          <mxGeometry x="-0.1429" relative="1" as="geometry">
            <mxPoint x="1374.86" y="-120" as="targetPoint" />
            <mxPoint x="1496.86" y="30" as="sourcePoint" />
            <Array as="points" />
            <mxPoint as="offset" />
          </mxGeometry>
        </mxCell>
        <mxCell id="CZPg4X9r4VKvUBCXlL0o-122" value="yes" style="edgeStyle=orthogonalEdgeStyle;html=1;align=left;verticalAlign=top;endArrow=open;endSize=8;strokeColor=#ff0000;rounded=0;exitX=0.5;exitY=1;exitDx=0;exitDy=0;entryX=0.5;entryY=0;entryDx=0;entryDy=0;" edge="1" parent="1" source="CZPg4X9r4VKvUBCXlL0o-120" target="CZPg4X9r4VKvUBCXlL0o-123">
          <mxGeometry x="-1" relative="1" as="geometry">
            <mxPoint x="1459.86" y="-20" as="targetPoint" />
            <mxPoint x="1406.86" y="120" as="sourcePoint" />
          </mxGeometry>
        </mxCell>
        <mxCell id="CZPg4X9r4VKvUBCXlL0o-123" value="Element wiederherstellen" style="rounded=1;whiteSpace=wrap;html=1;arcSize=40;fontColor=#000000;fillColor=#ffffc0;strokeColor=#ff0000;" vertex="1" parent="1">
          <mxGeometry x="1299.36" y="60" width="150" height="40" as="geometry" />
        </mxCell>
        <mxCell id="CZPg4X9r4VKvUBCXlL0o-124" value="" style="edgeStyle=orthogonalEdgeStyle;html=1;verticalAlign=bottom;endArrow=open;endSize=8;strokeColor=#ff0000;rounded=0;exitX=1;exitY=0.5;exitDx=0;exitDy=0;entryX=0;entryY=0.5;entryDx=0;entryDy=0;" edge="1" parent="1" source="CZPg4X9r4VKvUBCXlL0o-59" target="CZPg4X9r4VKvUBCXlL0o-120">
          <mxGeometry relative="1" as="geometry">
            <mxPoint x="1295.86" y="40" as="targetPoint" />
            <mxPoint x="1290.86" y="40" as="sourcePoint" />
          </mxGeometry>
        </mxCell>
        <mxCell id="CZPg4X9r4VKvUBCXlL0o-125" value="" style="edgeStyle=orthogonalEdgeStyle;html=1;verticalAlign=bottom;endArrow=open;endSize=8;strokeColor=#ff0000;rounded=0;entryX=0.25;entryY=0.5;entryDx=0;entryDy=0;exitX=0;exitY=0.5;exitDx=0;exitDy=0;entryPerimeter=0;" edge="1" parent="1" source="CZPg4X9r4VKvUBCXlL0o-123" target="CZPg4X9r4VKvUBCXlL0o-131">
          <mxGeometry relative="1" as="geometry">
            <mxPoint x="1584.86" y="70" as="targetPoint" />
            <mxPoint x="1549.86" y="70" as="sourcePoint" />
            <Array as="points">
              <mxPoint x="1049.86" y="80" />
              <mxPoint x="1049.86" />
            </Array>
          </mxGeometry>
        </mxCell>
        <mxCell id="CZPg4X9r4VKvUBCXlL0o-126" value="Geste zum Schließen" style="rounded=1;whiteSpace=wrap;html=1;arcSize=40;fontColor=#000000;fillColor=#ffffc0;strokeColor=#ff0000;" vertex="1" parent="1">
          <mxGeometry x="1309.36" y="-210" width="130" height="40" as="geometry" />
        </mxCell>
        <mxCell id="CZPg4X9r4VKvUBCXlL0o-129" value="" style="edgeStyle=elbowEdgeStyle;html=1;verticalAlign=bottom;endArrow=open;endSize=8;strokeColor=#ff0000;rounded=0;shadow=0;jumpStyle=arc;exitX=0;exitY=0.5;exitDx=0;exitDy=0;entryX=0.75;entryY=0.5;entryDx=0;entryDy=0;entryPerimeter=0;jumpSize=10;" edge="1" parent="1" source="CZPg4X9r4VKvUBCXlL0o-157" target="CZPg4X9r4VKvUBCXlL0o-116">
          <mxGeometry relative="1" as="geometry">
            <mxPoint x="859.86" y="-190" as="targetPoint" />
            <mxPoint x="1097.36" y="-180" as="sourcePoint" />
            <Array as="points">
              <mxPoint x="670" y="-120" />
            </Array>
          </mxGeometry>
        </mxCell>
        <mxCell id="CZPg4X9r4VKvUBCXlL0o-131" value="" style="shape=line;html=1;strokeWidth=6;strokeColor=#ff0000;rotation=-90;" vertex="1" parent="1">
          <mxGeometry x="1059.86" y="-25" width="80" height="10" as="geometry" />
        </mxCell>
        <mxCell id="CZPg4X9r4VKvUBCXlL0o-132" value="" style="edgeStyle=orthogonalEdgeStyle;html=1;verticalAlign=bottom;endArrow=open;endSize=8;strokeColor=#ff0000;rounded=0;entryX=0;entryY=0.5;entryDx=0;entryDy=0;" edge="1" parent="1" source="CZPg4X9r4VKvUBCXlL0o-131" target="CZPg4X9r4VKvUBCXlL0o-59">
          <mxGeometry relative="1" as="geometry">
            <mxPoint x="1139.86" y="-20" as="targetPoint" />
            <mxPoint x="1106.31" y="-120" as="sourcePoint" />
          </mxGeometry>
        </mxCell>
        <mxCell id="CZPg4X9r4VKvUBCXlL0o-133" value="Bild wird gedrückt" style="rhombus;whiteSpace=wrap;html=1;fontColor=#000000;fillColor=#ffffc0;strokeColor=#ff0000;align=center;spacing=12;" vertex="1" parent="1">
          <mxGeometry x="1657.36" y="15" width="115" height="80" as="geometry" />
        </mxCell>
        <mxCell id="CZPg4X9r4VKvUBCXlL0o-134" value="yes" style="edgeStyle=orthogonalEdgeStyle;html=1;align=left;verticalAlign=bottom;endArrow=open;endSize=8;strokeColor=#ff0000;rounded=0;exitX=1;exitY=0.5;exitDx=0;exitDy=0;entryX=0;entryY=0.5;entryDx=0;entryDy=0;" edge="1" parent="1" source="CZPg4X9r4VKvUBCXlL0o-133" target="CZPg4X9r4VKvUBCXlL0o-137">
          <mxGeometry x="-1" relative="1" as="geometry">
            <mxPoint x="1812.36" y="55" as="targetPoint" />
            <mxPoint x="1822.36" y="105" as="sourcePoint" />
          </mxGeometry>
        </mxCell>
        <mxCell id="CZPg4X9r4VKvUBCXlL0o-135" value="no" style="edgeStyle=orthogonalEdgeStyle;html=1;align=left;verticalAlign=top;endArrow=open;endSize=8;strokeColor=#ff0000;rounded=0;exitX=0.5;exitY=1;exitDx=0;exitDy=0;entryX=0.5;entryY=0;entryDx=0;entryDy=0;" edge="1" parent="1" source="CZPg4X9r4VKvUBCXlL0o-133" target="CZPg4X9r4VKvUBCXlL0o-145">
          <mxGeometry x="-1" relative="1" as="geometry">
            <mxPoint x="1714.86" y="125" as="targetPoint" />
            <mxPoint x="1732.36" y="175" as="sourcePoint" />
          </mxGeometry>
        </mxCell>
        <mxCell id="CZPg4X9r4VKvUBCXlL0o-136" value="" style="edgeStyle=orthogonalEdgeStyle;html=1;verticalAlign=bottom;endArrow=open;endSize=8;strokeColor=#ff0000;rounded=0;exitX=0.5;exitY=1;exitDx=0;exitDy=0;entryX=0.498;entryY=0.52;entryDx=0;entryDy=0;entryPerimeter=0;" edge="1" parent="1" source="CZPg4X9r4VKvUBCXlL0o-34" target="CZPg4X9r4VKvUBCXlL0o-138">
          <mxGeometry relative="1" as="geometry">
            <mxPoint x="1659.86" y="-90" as="targetPoint" />
            <mxPoint x="1569.86" y="-100" as="sourcePoint" />
          </mxGeometry>
        </mxCell>
        <mxCell id="CZPg4X9r4VKvUBCXlL0o-137" value="FullscreenPhotoViewController laden" style="rounded=1;whiteSpace=wrap;html=1;arcSize=40;fontColor=#000000;fillColor=#ffffc0;strokeColor=#ff0000;" vertex="1" parent="1">
          <mxGeometry x="1832.36" y="35" width="180" height="40" as="geometry" />
        </mxCell>
        <mxCell id="CZPg4X9r4VKvUBCXlL0o-138" value="" style="shape=line;html=1;strokeWidth=6;strokeColor=#ff0000;" vertex="1" parent="1">
          <mxGeometry x="1674.86" y="-80" width="80" height="10" as="geometry" />
        </mxCell>
        <mxCell id="CZPg4X9r4VKvUBCXlL0o-139" value="" style="edgeStyle=orthogonalEdgeStyle;html=1;verticalAlign=bottom;endArrow=open;endSize=8;strokeColor=#ff0000;rounded=0;entryX=0.5;entryY=0;entryDx=0;entryDy=0;" edge="1" parent="1" source="CZPg4X9r4VKvUBCXlL0o-138" target="CZPg4X9r4VKvUBCXlL0o-133">
          <mxGeometry relative="1" as="geometry">
            <mxPoint x="1694.85" y="-45" as="targetPoint" />
          </mxGeometry>
        </mxCell>
        <mxCell id="CZPg4X9r4VKvUBCXlL0o-140" value="" style="edgeStyle=orthogonalEdgeStyle;html=1;verticalAlign=bottom;endArrow=open;endSize=8;strokeColor=#ff0000;rounded=0;entryX=0.75;entryY=0.5;entryDx=0;entryDy=0;exitX=0.5;exitY=0;exitDx=0;exitDy=0;entryPerimeter=0;" edge="1" parent="1" source="CZPg4X9r4VKvUBCXlL0o-141" target="CZPg4X9r4VKvUBCXlL0o-138">
          <mxGeometry relative="1" as="geometry">
            <mxPoint x="2064.86" y="-80" as="targetPoint" />
            <mxPoint x="2064.86" y="-115" as="sourcePoint" />
            <Array as="points">
              <mxPoint x="1921.86" y="-110" />
              <mxPoint x="1734.86" y="-110" />
            </Array>
          </mxGeometry>
        </mxCell>
        <mxCell id="CZPg4X9r4VKvUBCXlL0o-141" value="FullscreenPhotoViewController schließen" style="rounded=1;whiteSpace=wrap;html=1;arcSize=40;fontColor=#000000;fillColor=#ffffc0;strokeColor=#ff0000;" vertex="1" parent="1">
          <mxGeometry x="1832.36" y="-85" width="180" height="40" as="geometry" />
        </mxCell>
        <mxCell id="CZPg4X9r4VKvUBCXlL0o-142" value="" style="edgeStyle=orthogonalEdgeStyle;html=1;verticalAlign=bottom;endArrow=open;endSize=8;strokeColor=#ff0000;rounded=0;entryX=0.5;entryY=1;entryDx=0;entryDy=0;exitX=0.5;exitY=0;exitDx=0;exitDy=0;" edge="1" parent="1" source="CZPg4X9r4VKvUBCXlL0o-143" target="CZPg4X9r4VKvUBCXlL0o-141">
          <mxGeometry relative="1" as="geometry">
            <mxPoint x="2044.86" as="targetPoint" />
            <mxPoint x="1922.86" y="-30" as="sourcePoint" />
          </mxGeometry>
        </mxCell>
        <mxCell id="CZPg4X9r4VKvUBCXlL0o-143" value="&quot;X&quot;-Button gedrückt" style="rounded=1;whiteSpace=wrap;html=1;arcSize=40;fontColor=#000000;fillColor=#ffffc0;strokeColor=#ff0000;" vertex="1" parent="1">
          <mxGeometry x="1861.11" y="-25" width="122.5" height="40" as="geometry" />
        </mxCell>
        <mxCell id="CZPg4X9r4VKvUBCXlL0o-144" value="" style="edgeStyle=orthogonalEdgeStyle;html=1;verticalAlign=bottom;endArrow=open;endSize=8;strokeColor=#ff0000;rounded=0;entryX=0.5;entryY=1;entryDx=0;entryDy=0;exitX=0.5;exitY=0;exitDx=0;exitDy=0;" edge="1" parent="1" source="CZPg4X9r4VKvUBCXlL0o-137" target="CZPg4X9r4VKvUBCXlL0o-143">
          <mxGeometry relative="1" as="geometry">
            <mxPoint x="2064.86" y="-35" as="targetPoint" />
            <mxPoint x="2064.86" y="-15" as="sourcePoint" />
          </mxGeometry>
        </mxCell>
        <mxCell id="CZPg4X9r4VKvUBCXlL0o-145" value="Löschen-Button wird gedrückt" style="rhombus;whiteSpace=wrap;html=1;fontColor=#000000;fillColor=#ffffc0;strokeColor=#ff0000;align=center;spacing=12;" vertex="1" parent="1">
          <mxGeometry x="1657.36" y="130" width="115" height="80" as="geometry" />
        </mxCell>
        <mxCell id="CZPg4X9r4VKvUBCXlL0o-146" value="yes" style="edgeStyle=orthogonalEdgeStyle;html=1;align=left;verticalAlign=bottom;endArrow=open;endSize=8;strokeColor=#ff0000;rounded=0;exitX=1;exitY=0.5;exitDx=0;exitDy=0;entryX=0;entryY=0.5;entryDx=0;entryDy=0;" edge="1" parent="1" source="CZPg4X9r4VKvUBCXlL0o-145" target="CZPg4X9r4VKvUBCXlL0o-151">
          <mxGeometry x="-1" relative="1" as="geometry">
            <mxPoint x="1832.86" y="180" as="targetPoint" />
            <mxPoint x="1822.36" y="230" as="sourcePoint" />
          </mxGeometry>
        </mxCell>
        <mxCell id="CZPg4X9r4VKvUBCXlL0o-147" value="no" style="edgeStyle=orthogonalEdgeStyle;html=1;align=left;verticalAlign=top;endArrow=open;endSize=8;strokeColor=#ff0000;rounded=0;exitX=0.5;exitY=1;exitDx=0;exitDy=0;entryX=0.5;entryY=0;entryDx=0;entryDy=0;" edge="1" parent="1" source="CZPg4X9r4VKvUBCXlL0o-145" target="CZPg4X9r4VKvUBCXlL0o-148">
          <mxGeometry x="-1" relative="1" as="geometry">
            <mxPoint x="1714.86" y="250" as="targetPoint" />
            <mxPoint x="1732.36" y="300" as="sourcePoint" />
          </mxGeometry>
        </mxCell>
        <mxCell id="CZPg4X9r4VKvUBCXlL0o-148" value="Handerkennung-Button wird gedrückt" style="rhombus;whiteSpace=wrap;html=1;fontColor=#000000;fillColor=#ffffc0;strokeColor=#ff0000;align=center;spacing=12;" vertex="1" parent="1">
          <mxGeometry x="1657.36" y="250" width="115" height="80" as="geometry" />
        </mxCell>
        <mxCell id="CZPg4X9r4VKvUBCXlL0o-149" value="no" style="edgeStyle=orthogonalEdgeStyle;html=1;align=left;verticalAlign=bottom;endArrow=open;endSize=8;strokeColor=#ff0000;rounded=0;exitX=1;exitY=0.5;exitDx=0;exitDy=0;entryX=0;entryY=0.5;entryDx=0;entryDy=0;" edge="1" parent="1" source="CZPg4X9r4VKvUBCXlL0o-148" target="CZPg4X9r4VKvUBCXlL0o-152">
          <mxGeometry x="-1" relative="1" as="geometry">
            <mxPoint x="1832.86" y="290" as="targetPoint" />
            <mxPoint x="1822.36" y="360" as="sourcePoint" />
          </mxGeometry>
        </mxCell>
        <mxCell id="CZPg4X9r4VKvUBCXlL0o-150" value="yes" style="edgeStyle=orthogonalEdgeStyle;html=1;align=left;verticalAlign=top;endArrow=open;endSize=8;strokeColor=#ff0000;rounded=0;exitX=0.5;exitY=1;exitDx=0;exitDy=0;entryX=0.5;entryY=0;entryDx=0;entryDy=0;" edge="1" parent="1" source="CZPg4X9r4VKvUBCXlL0o-148" target="CZPg4X9r4VKvUBCXlL0o-153">
          <mxGeometry x="-1" relative="1" as="geometry">
            <mxPoint x="1714.86" y="380" as="targetPoint" />
            <mxPoint x="1732.36" y="430" as="sourcePoint" />
          </mxGeometry>
        </mxCell>
        <mxCell id="CZPg4X9r4VKvUBCXlL0o-151" value="Bild löschen" style="rounded=1;whiteSpace=wrap;html=1;arcSize=40;fontColor=#000000;fillColor=#ffffc0;strokeColor=#ff0000;" vertex="1" parent="1">
          <mxGeometry x="1812.36" y="150" width="122.5" height="40" as="geometry" />
        </mxCell>
        <mxCell id="CZPg4X9r4VKvUBCXlL0o-152" value="Geste zum Schließen" style="rounded=1;whiteSpace=wrap;html=1;arcSize=40;fontColor=#000000;fillColor=#ffffc0;strokeColor=#ff0000;" vertex="1" parent="1">
          <mxGeometry x="1807.36" y="270" width="132.5" height="40" as="geometry" />
        </mxCell>
        <mxCell id="CZPg4X9r4VKvUBCXlL0o-153" value="HandTrackingViewController laden" style="rounded=1;whiteSpace=wrap;html=1;arcSize=40;fontColor=#000000;fillColor=#ffffc0;strokeColor=#ff0000;" vertex="1" parent="1">
          <mxGeometry x="1629.86" y="375" width="170" height="40" as="geometry" />
        </mxCell>
        <mxCell id="CZPg4X9r4VKvUBCXlL0o-154" value="PhotoViewController schließen" style="rounded=1;whiteSpace=wrap;html=1;arcSize=40;fontColor=#000000;fillColor=#ffffc0;strokeColor=#ff0000;" vertex="1" parent="1">
          <mxGeometry x="2024.86" y="215" width="140" height="40" as="geometry" />
        </mxCell>
        <mxCell id="CZPg4X9r4VKvUBCXlL0o-157" value="TrashViewController schließen" style="rounded=1;whiteSpace=wrap;html=1;arcSize=40;fontColor=#000000;fillColor=#ffffc0;strokeColor=#ff0000;" vertex="1" parent="1">
          <mxGeometry x="1129.86" y="-210" width="150" height="40" as="geometry" />
        </mxCell>
        <mxCell id="CZPg4X9r4VKvUBCXlL0o-158" value="" style="edgeStyle=orthogonalEdgeStyle;html=1;verticalAlign=bottom;endArrow=open;endSize=8;strokeColor=#ff0000;rounded=0;entryX=1;entryY=0.5;entryDx=0;entryDy=0;exitX=0;exitY=0.5;exitDx=0;exitDy=0;" edge="1" parent="1" source="CZPg4X9r4VKvUBCXlL0o-126" target="CZPg4X9r4VKvUBCXlL0o-157">
          <mxGeometry relative="1" as="geometry">
            <mxPoint x="1309.36" y="-150.36" as="targetPoint" />
            <mxPoint x="1279.86" y="-150" as="sourcePoint" />
          </mxGeometry>
        </mxCell>
        <mxCell id="CZPg4X9r4VKvUBCXlL0o-159" value="FilterViewController schließen" style="rounded=1;whiteSpace=wrap;html=1;arcSize=40;fontColor=#000000;fillColor=#ffffc0;strokeColor=#ff0000;" vertex="1" parent="1">
          <mxGeometry x="1394.86" y="350" width="146.5" height="40" as="geometry" />
        </mxCell>
        <mxCell id="CZPg4X9r4VKvUBCXlL0o-160" value="" style="edgeStyle=orthogonalEdgeStyle;html=1;verticalAlign=bottom;endArrow=open;endSize=8;strokeColor=#ff0000;rounded=0;entryX=0;entryY=0.5;entryDx=0;entryDy=0;exitX=1;exitY=0.5;exitDx=0;exitDy=0;" edge="1" parent="1" source="CZPg4X9r4VKvUBCXlL0o-86" target="CZPg4X9r4VKvUBCXlL0o-159">
          <mxGeometry relative="1" as="geometry">
            <mxPoint x="1394.86" y="410" as="targetPoint" />
            <mxPoint x="1369.86" y="410" as="sourcePoint" />
          </mxGeometry>
        </mxCell>
        <mxCell id="CZPg4X9r4VKvUBCXlL0o-162" value="PhotoPickerViewController schließen" style="rounded=1;whiteSpace=wrap;html=1;arcSize=40;fontColor=#000000;fillColor=#ffffc0;strokeColor=#ff0000;" vertex="1" parent="1">
          <mxGeometry x="134.86" y="-170" width="150" height="40" as="geometry" />
        </mxCell>
        <mxCell id="CZPg4X9r4VKvUBCXlL0o-163" value="" style="shape=line;html=1;strokeWidth=6;strokeColor=#ff0000;rotation=0;" vertex="1" parent="1">
          <mxGeometry x="179.86" y="-90" width="60" height="10" as="geometry" />
        </mxCell>
        <mxCell id="CZPg4X9r4VKvUBCXlL0o-166" value="" style="edgeStyle=orthogonalEdgeStyle;html=1;verticalAlign=bottom;endArrow=open;endSize=8;strokeColor=#ff0000;rounded=0;entryX=0.5;entryY=1;entryDx=0;entryDy=0;" edge="1" parent="1" source="CZPg4X9r4VKvUBCXlL0o-163" target="CZPg4X9r4VKvUBCXlL0o-162">
          <mxGeometry relative="1" as="geometry">
            <mxPoint x="279.86" y="-102.5" as="targetPoint" />
            <mxPoint x="279.86" y="-47.5" as="sourcePoint" />
          </mxGeometry>
        </mxCell>
        <mxCell id="CZPg4X9r4VKvUBCXlL0o-168" value="" style="edgeStyle=orthogonalEdgeStyle;html=1;verticalAlign=bottom;endArrow=open;endSize=8;strokeColor=#ff0000;rounded=0;exitX=0.5;exitY=0;exitDx=0;exitDy=0;" edge="1" parent="1" source="CZPg4X9r4VKvUBCXlL0o-162" target="CZPg4X9r4VKvUBCXlL0o-68">
          <mxGeometry relative="1" as="geometry">
            <mxPoint x="459.86" y="-220" as="targetPoint" />
            <mxPoint x="209.57" y="-200" as="sourcePoint" />
            <Array as="points">
              <mxPoint x="209.86" y="-240" />
              <mxPoint x="479.86" y="-240" />
            </Array>
          </mxGeometry>
        </mxCell>
        <mxCell id="CZPg4X9r4VKvUBCXlL0o-169" value="" style="shape=line;html=1;strokeWidth=6;strokeColor=#ff0000;rotation=90;" vertex="1" parent="1">
          <mxGeometry x="1954.86" y="230" width="80" height="10" as="geometry" />
        </mxCell>
        <mxCell id="CZPg4X9r4VKvUBCXlL0o-170" value="" style="edgeStyle=orthogonalEdgeStyle;html=1;verticalAlign=bottom;endArrow=open;endSize=8;strokeColor=#ff0000;rounded=0;entryX=0;entryY=0.5;entryDx=0;entryDy=0;" edge="1" parent="1" source="CZPg4X9r4VKvUBCXlL0o-169" target="CZPg4X9r4VKvUBCXlL0o-154">
          <mxGeometry relative="1" as="geometry">
            <mxPoint x="2184.86" y="120" as="targetPoint" />
            <mxPoint x="2234.86" y="-20" as="sourcePoint" />
          </mxGeometry>
        </mxCell>
        <mxCell id="CZPg4X9r4VKvUBCXlL0o-171" value="" style="edgeStyle=orthogonalEdgeStyle;html=1;verticalAlign=bottom;endArrow=open;endSize=8;strokeColor=#ff0000;rounded=0;exitX=1;exitY=0.5;exitDx=0;exitDy=0;entryX=0.25;entryY=0.5;entryDx=0;entryDy=0;entryPerimeter=0;" edge="1" parent="1" source="CZPg4X9r4VKvUBCXlL0o-151" target="CZPg4X9r4VKvUBCXlL0o-169">
          <mxGeometry relative="1" as="geometry">
            <mxPoint x="2094.86" y="170" as="targetPoint" />
            <mxPoint x="2084.86" y="150" as="sourcePoint" />
            <Array as="points">
              <mxPoint x="1954.86" y="170" />
              <mxPoint x="1954.86" y="215" />
            </Array>
          </mxGeometry>
        </mxCell>
        <mxCell id="CZPg4X9r4VKvUBCXlL0o-173" value="" style="edgeStyle=orthogonalEdgeStyle;html=1;verticalAlign=bottom;endArrow=open;endSize=8;strokeColor=#ff0000;rounded=0;exitX=1;exitY=0.5;exitDx=0;exitDy=0;entryX=0.75;entryY=0.5;entryDx=0;entryDy=0;entryPerimeter=0;" edge="1" parent="1" source="CZPg4X9r4VKvUBCXlL0o-152" target="CZPg4X9r4VKvUBCXlL0o-169">
          <mxGeometry relative="1" as="geometry">
            <mxPoint x="2129.86" y="320" as="targetPoint" />
            <mxPoint x="1974.86" y="290" as="sourcePoint" />
            <Array as="points">
              <mxPoint x="1954.86" y="290" />
              <mxPoint x="1954.86" y="255" />
            </Array>
          </mxGeometry>
        </mxCell>
        <mxCell id="CZPg4X9r4VKvUBCXlL0o-174" value="Zurück-Button gedrückt" style="rounded=1;whiteSpace=wrap;html=1;arcSize=40;fontColor=#000000;fillColor=#ffffc0;strokeColor=#ff0000;" vertex="1" parent="1">
          <mxGeometry x="1647.36" y="440" width="135" height="40" as="geometry" />
        </mxCell>
        <mxCell id="CZPg4X9r4VKvUBCXlL0o-175" value="HandTrackingViewController schließen" style="rounded=1;whiteSpace=wrap;html=1;arcSize=40;fontColor=#000000;fillColor=#ffffc0;strokeColor=#ff0000;" vertex="1" parent="1">
          <mxGeometry x="1629.86" y="510" width="170" height="40" as="geometry" />
        </mxCell>
        <mxCell id="CZPg4X9r4VKvUBCXlL0o-176" value="" style="edgeStyle=orthogonalEdgeStyle;html=1;verticalAlign=bottom;endArrow=open;endSize=8;strokeColor=#ff0000;rounded=0;entryX=0.5;entryY=0;entryDx=0;entryDy=0;exitX=0.5;exitY=1;exitDx=0;exitDy=0;" edge="1" parent="1" source="CZPg4X9r4VKvUBCXlL0o-153" target="CZPg4X9r4VKvUBCXlL0o-174">
          <mxGeometry relative="1" as="geometry">
            <mxPoint x="1974.86" y="384.52" as="targetPoint" />
            <mxPoint x="1924.86" y="549.52" as="sourcePoint" />
          </mxGeometry>
        </mxCell>
        <mxCell id="CZPg4X9r4VKvUBCXlL0o-177" value="" style="edgeStyle=orthogonalEdgeStyle;html=1;verticalAlign=bottom;endArrow=open;endSize=8;strokeColor=#ff0000;rounded=0;entryX=0.5;entryY=0;entryDx=0;entryDy=0;exitX=0.5;exitY=1;exitDx=0;exitDy=0;" edge="1" parent="1" source="CZPg4X9r4VKvUBCXlL0o-174" target="CZPg4X9r4VKvUBCXlL0o-175">
          <mxGeometry relative="1" as="geometry">
            <mxPoint x="1799.86" y="495" as="targetPoint" />
            <mxPoint x="1799.86" y="470" as="sourcePoint" />
          </mxGeometry>
        </mxCell>
        <mxCell id="CZPg4X9r4VKvUBCXlL0o-178" value="" style="edgeStyle=orthogonalEdgeStyle;html=1;verticalAlign=bottom;endArrow=open;endSize=8;strokeColor=#ff0000;rounded=0;exitX=0;exitY=0.5;exitDx=0;exitDy=0;entryX=0.25;entryY=0.5;entryDx=0;entryDy=0;entryPerimeter=0;" edge="1" parent="1" source="CZPg4X9r4VKvUBCXlL0o-175" target="CZPg4X9r4VKvUBCXlL0o-138">
          <mxGeometry relative="1" as="geometry">
            <mxPoint x="1589.86" y="350" as="targetPoint" />
            <mxPoint x="1569.86" y="500" as="sourcePoint" />
            <Array as="points">
              <mxPoint x="1599.86" y="530" />
              <mxPoint x="1599.86" y="-110" />
              <mxPoint x="1694.86" y="-110" />
            </Array>
          </mxGeometry>
        </mxCell>
        <mxCell id="CZPg4X9r4VKvUBCXlL0o-179" value="" style="shape=line;html=1;strokeWidth=6;strokeColor=#ff0000;rotation=-90;" vertex="1" parent="1">
          <mxGeometry x="1983.61" y="-245" width="80" height="10" as="geometry" />
        </mxCell>
        <mxCell id="CZPg4X9r4VKvUBCXlL0o-180" value="" style="edgeStyle=orthogonalEdgeStyle;html=1;verticalAlign=bottom;endArrow=open;endSize=8;strokeColor=#ff0000;rounded=0;entryX=0;entryY=0.5;entryDx=0;entryDy=0;" edge="1" parent="1" source="CZPg4X9r4VKvUBCXlL0o-179" target="CZPg4X9r4VKvUBCXlL0o-183">
          <mxGeometry relative="1" as="geometry">
            <mxPoint x="2069.86" y="-240" as="targetPoint" />
          </mxGeometry>
        </mxCell>
        <mxCell id="CZPg4X9r4VKvUBCXlL0o-182" value="" style="edgeStyle=orthogonalEdgeStyle;html=1;verticalAlign=bottom;endArrow=open;endSize=8;strokeColor=#ff0000;rounded=0;exitX=1;exitY=0.5;exitDx=0;exitDy=0;" edge="1" parent="1" source="CZPg4X9r4VKvUBCXlL0o-33">
          <mxGeometry relative="1" as="geometry">
            <mxPoint x="2023.86" y="-240" as="targetPoint" />
            <mxPoint x="1942.61" y="-210" as="sourcePoint" />
            <Array as="points">
              <mxPoint x="2023.86" y="-240" />
            </Array>
          </mxGeometry>
        </mxCell>
        <mxCell id="CZPg4X9r4VKvUBCXlL0o-183" value="Play-Button wird gedrückt" style="rhombus;whiteSpace=wrap;html=1;fontColor=#000000;fillColor=#ffffc0;strokeColor=#ff0000;align=center;spacing=12;" vertex="1" parent="1">
          <mxGeometry x="2063.61" y="-280" width="115" height="80" as="geometry" />
        </mxCell>
        <mxCell id="CZPg4X9r4VKvUBCXlL0o-184" value="yes" style="edgeStyle=orthogonalEdgeStyle;html=1;align=left;verticalAlign=bottom;endArrow=open;endSize=8;strokeColor=#ff0000;rounded=0;exitX=1;exitY=0.5;exitDx=0;exitDy=0;entryX=0;entryY=0.5;entryDx=0;entryDy=0;" edge="1" parent="1" source="CZPg4X9r4VKvUBCXlL0o-183" target="CZPg4X9r4VKvUBCXlL0o-189">
          <mxGeometry x="-1" relative="1" as="geometry">
            <mxPoint x="2239.86" y="-240" as="targetPoint" />
            <mxPoint x="2264.86" y="-190" as="sourcePoint" />
          </mxGeometry>
        </mxCell>
        <mxCell id="CZPg4X9r4VKvUBCXlL0o-185" value="no" style="edgeStyle=orthogonalEdgeStyle;html=1;align=left;verticalAlign=top;endArrow=open;endSize=8;strokeColor=#ff0000;rounded=0;exitX=0.5;exitY=1;exitDx=0;exitDy=0;entryX=0.5;entryY=0;entryDx=0;entryDy=0;" edge="1" parent="1" source="CZPg4X9r4VKvUBCXlL0o-183" target="CZPg4X9r4VKvUBCXlL0o-195">
          <mxGeometry x="-1" relative="1" as="geometry">
            <mxPoint x="2120.86" y="-160" as="targetPoint" />
            <mxPoint x="2174.86" y="-120" as="sourcePoint" />
          </mxGeometry>
        </mxCell>
        <mxCell id="CZPg4X9r4VKvUBCXlL0o-186" value="Video abspielen" style="rounded=1;whiteSpace=wrap;html=1;arcSize=40;fontColor=#000000;fillColor=#ffffc0;strokeColor=#ff0000;" vertex="1" parent="1">
          <mxGeometry x="2209.86" y="-320" width="100" height="40" as="geometry" />
        </mxCell>
        <mxCell id="CZPg4X9r4VKvUBCXlL0o-187" value="&quot;X&quot;-Button gedrückt" style="rounded=1;whiteSpace=wrap;html=1;arcSize=40;fontColor=#000000;fillColor=#ffffc0;strokeColor=#ff0000;" vertex="1" parent="1">
          <mxGeometry x="2198.61" y="-380" width="122.5" height="40" as="geometry" />
        </mxCell>
        <mxCell id="CZPg4X9r4VKvUBCXlL0o-188" value="" style="edgeStyle=orthogonalEdgeStyle;html=1;verticalAlign=bottom;endArrow=open;endSize=8;strokeColor=#ff0000;rounded=0;entryX=0.5;entryY=1;entryDx=0;entryDy=0;exitX=0.5;exitY=0;exitDx=0;exitDy=0;" edge="1" parent="1" source="CZPg4X9r4VKvUBCXlL0o-186" target="CZPg4X9r4VKvUBCXlL0o-187">
          <mxGeometry relative="1" as="geometry">
            <mxPoint x="2464.86" y="-200" as="targetPoint" />
            <mxPoint x="2429.86" y="-200" as="sourcePoint" />
          </mxGeometry>
        </mxCell>
        <mxCell id="CZPg4X9r4VKvUBCXlL0o-189" value="Video Player laden" style="rounded=1;whiteSpace=wrap;html=1;arcSize=40;fontColor=#000000;fillColor=#ffffc0;strokeColor=#ff0000;" vertex="1" parent="1">
          <mxGeometry x="2209.86" y="-260" width="100" height="40" as="geometry" />
        </mxCell>
        <mxCell id="CZPg4X9r4VKvUBCXlL0o-191" value="" style="edgeStyle=orthogonalEdgeStyle;html=1;verticalAlign=bottom;endArrow=open;endSize=8;strokeColor=#ff0000;rounded=0;exitX=0.5;exitY=0;exitDx=0;exitDy=0;entryX=0.5;entryY=1;entryDx=0;entryDy=0;" edge="1" parent="1" source="CZPg4X9r4VKvUBCXlL0o-189" target="CZPg4X9r4VKvUBCXlL0o-186">
          <mxGeometry relative="1" as="geometry">
            <mxPoint x="2379.86" y="-240" as="targetPoint" />
            <mxPoint x="2349.86" y="-240.31" as="sourcePoint" />
          </mxGeometry>
        </mxCell>
        <mxCell id="CZPg4X9r4VKvUBCXlL0o-192" value="Video Player schließen" style="rounded=1;whiteSpace=wrap;html=1;arcSize=40;fontColor=#000000;fillColor=#ffffc0;strokeColor=#ff0000;" vertex="1" parent="1">
          <mxGeometry x="2071.11" y="-380" width="100" height="40" as="geometry" />
        </mxCell>
        <mxCell id="CZPg4X9r4VKvUBCXlL0o-193" value="" style="edgeStyle=orthogonalEdgeStyle;html=1;verticalAlign=bottom;endArrow=open;endSize=8;strokeColor=#ff0000;rounded=0;entryX=1;entryY=0.5;entryDx=0;entryDy=0;exitX=0;exitY=0.5;exitDx=0;exitDy=0;" edge="1" parent="1" source="CZPg4X9r4VKvUBCXlL0o-187" target="CZPg4X9r4VKvUBCXlL0o-192">
          <mxGeometry relative="1" as="geometry">
            <mxPoint x="2321.11" y="-410" as="targetPoint" />
            <mxPoint x="2321.11" y="-390" as="sourcePoint" />
          </mxGeometry>
        </mxCell>
        <mxCell id="CZPg4X9r4VKvUBCXlL0o-194" value="" style="edgeStyle=orthogonalEdgeStyle;html=1;verticalAlign=bottom;endArrow=open;endSize=8;strokeColor=#ff0000;rounded=0;exitX=0;exitY=0.5;exitDx=0;exitDy=0;entryX=0.75;entryY=0.5;entryDx=0;entryDy=0;entryPerimeter=0;" edge="1" parent="1" source="CZPg4X9r4VKvUBCXlL0o-192" target="CZPg4X9r4VKvUBCXlL0o-179">
          <mxGeometry relative="1" as="geometry">
            <mxPoint x="2119.86" y="-400" as="targetPoint" />
            <mxPoint x="2269.86" y="-370" as="sourcePoint" />
            <Array as="points">
              <mxPoint x="1979.86" y="-360" />
              <mxPoint x="1979.86" y="-260" />
            </Array>
          </mxGeometry>
        </mxCell>
        <mxCell id="CZPg4X9r4VKvUBCXlL0o-195" value="Löschen-Button wird gedrückt" style="rhombus;whiteSpace=wrap;html=1;fontColor=#000000;fillColor=#ffffc0;strokeColor=#ff0000;align=center;spacing=12;" vertex="1" parent="1">
          <mxGeometry x="2063.61" y="-145" width="115" height="80" as="geometry" />
        </mxCell>
        <mxCell id="CZPg4X9r4VKvUBCXlL0o-196" value="yes" style="edgeStyle=orthogonalEdgeStyle;html=1;align=left;verticalAlign=bottom;endArrow=open;endSize=8;strokeColor=#ff0000;rounded=0;exitX=1;exitY=0.5;exitDx=0;exitDy=0;entryX=0;entryY=0.5;entryDx=0;entryDy=0;" edge="1" parent="1" source="CZPg4X9r4VKvUBCXlL0o-195" target="CZPg4X9r4VKvUBCXlL0o-198">
          <mxGeometry x="-1" relative="1" as="geometry">
            <mxPoint x="2239.11" y="-95" as="targetPoint" />
            <mxPoint x="2228.61" y="-45" as="sourcePoint" />
          </mxGeometry>
        </mxCell>
        <mxCell id="CZPg4X9r4VKvUBCXlL0o-197" value="no" style="edgeStyle=orthogonalEdgeStyle;html=1;align=left;verticalAlign=top;endArrow=open;endSize=8;strokeColor=#ff0000;rounded=0;exitX=0.5;exitY=1;exitDx=0;exitDy=0;entryX=0.5;entryY=0;entryDx=0;entryDy=0;" edge="1" parent="1" source="CZPg4X9r4VKvUBCXlL0o-195" target="CZPg4X9r4VKvUBCXlL0o-199">
          <mxGeometry x="-1" relative="1" as="geometry">
            <mxPoint x="2121.11" y="-25" as="targetPoint" />
            <mxPoint x="2138.61" y="25" as="sourcePoint" />
          </mxGeometry>
        </mxCell>
        <mxCell id="CZPg4X9r4VKvUBCXlL0o-198" value="Video löschen" style="rounded=1;whiteSpace=wrap;html=1;arcSize=40;fontColor=#000000;fillColor=#ffffc0;strokeColor=#ff0000;" vertex="1" parent="1">
          <mxGeometry x="2218.61" y="-125" width="122.5" height="40" as="geometry" />
        </mxCell>
        <mxCell id="CZPg4X9r4VKvUBCXlL0o-199" value="Geste zum Schließen" style="rounded=1;whiteSpace=wrap;html=1;arcSize=40;fontColor=#000000;fillColor=#ffffc0;strokeColor=#ff0000;" vertex="1" parent="1">
          <mxGeometry x="2054.86" y="-15" width="132.5" height="40" as="geometry" />
        </mxCell>
        <mxCell id="CZPg4X9r4VKvUBCXlL0o-200" value="PhotoViewController schließen" style="rounded=1;whiteSpace=wrap;html=1;arcSize=40;fontColor=#000000;fillColor=#ffffc0;strokeColor=#ff0000;" vertex="1" parent="1">
          <mxGeometry x="2359.86" y="-35" width="140" height="40" as="geometry" />
        </mxCell>
        <mxCell id="CZPg4X9r4VKvUBCXlL0o-201" value="" style="shape=line;html=1;strokeWidth=6;strokeColor=#ff0000;rotation=90;" vertex="1" parent="1">
          <mxGeometry x="2289.86" y="-20" width="80" height="10" as="geometry" />
        </mxCell>
        <mxCell id="CZPg4X9r4VKvUBCXlL0o-202" value="" style="edgeStyle=orthogonalEdgeStyle;html=1;verticalAlign=bottom;endArrow=open;endSize=8;strokeColor=#ff0000;rounded=0;entryX=0;entryY=0.5;entryDx=0;entryDy=0;" edge="1" parent="1" source="CZPg4X9r4VKvUBCXlL0o-201" target="CZPg4X9r4VKvUBCXlL0o-200">
          <mxGeometry relative="1" as="geometry">
            <mxPoint x="2576.11" y="-100" as="targetPoint" />
            <mxPoint x="2626.11" y="-240" as="sourcePoint" />
          </mxGeometry>
        </mxCell>
        <mxCell id="CZPg4X9r4VKvUBCXlL0o-203" value="" style="edgeStyle=orthogonalEdgeStyle;html=1;verticalAlign=bottom;endArrow=open;endSize=8;strokeColor=#ff0000;rounded=0;exitX=0.5;exitY=1;exitDx=0;exitDy=0;entryX=0.25;entryY=0.5;entryDx=0;entryDy=0;entryPerimeter=0;" edge="1" parent="1" target="CZPg4X9r4VKvUBCXlL0o-201" source="CZPg4X9r4VKvUBCXlL0o-198">
          <mxGeometry relative="1" as="geometry">
            <mxPoint x="2486.11" y="-50" as="targetPoint" />
            <mxPoint x="2326.11" y="-50" as="sourcePoint" />
            <Array as="points">
              <mxPoint x="2279.86" y="-35" />
            </Array>
          </mxGeometry>
        </mxCell>
        <mxCell id="CZPg4X9r4VKvUBCXlL0o-204" value="" style="edgeStyle=orthogonalEdgeStyle;html=1;verticalAlign=bottom;endArrow=open;endSize=8;strokeColor=#ff0000;rounded=0;exitX=1;exitY=0.5;exitDx=0;exitDy=0;entryX=0.75;entryY=0.5;entryDx=0;entryDy=0;entryPerimeter=0;" edge="1" parent="1" source="CZPg4X9r4VKvUBCXlL0o-199" target="CZPg4X9r4VKvUBCXlL0o-201">
          <mxGeometry relative="1" as="geometry">
            <mxPoint x="2521.11" y="100" as="targetPoint" />
            <mxPoint x="2366.11" y="70" as="sourcePoint" />
          </mxGeometry>
        </mxCell>
        <mxCell id="CZPg4X9r4VKvUBCXlL0o-205" value="" style="edgeStyle=orthogonalEdgeStyle;html=1;verticalAlign=bottom;endArrow=open;endSize=8;strokeColor=#ff0000;rounded=0;" edge="1" parent="1" source="CZPg4X9r4VKvUBCXlL0o-206" target="CZPg4X9r4VKvUBCXlL0o-68">
          <mxGeometry relative="1" as="geometry">
            <mxPoint x="2473.86" y="-180" as="targetPoint" />
            <mxPoint x="2439.86" y="-140" as="sourcePoint" />
            <Array as="points">
              <mxPoint x="2499.86" y="-430" />
              <mxPoint x="1909.86" y="-430" />
              <mxPoint x="1909.86" y="-300" />
              <mxPoint x="599.86" y="-300" />
            </Array>
          </mxGeometry>
        </mxCell>
        <mxCell id="CZPg4X9r4VKvUBCXlL0o-206" value="" style="shape=line;html=1;strokeWidth=6;strokeColor=#ff0000;rotation=0;" vertex="1" parent="1">
          <mxGeometry x="2459.86" y="-120" width="80" height="10" as="geometry" />
        </mxCell>
        <mxCell id="CZPg4X9r4VKvUBCXlL0o-207" value="" style="edgeStyle=orthogonalEdgeStyle;html=1;verticalAlign=bottom;endArrow=open;endSize=8;strokeColor=#ff0000;rounded=0;exitX=0.5;exitY=0;exitDx=0;exitDy=0;" edge="1" parent="1" source="CZPg4X9r4VKvUBCXlL0o-200" target="CZPg4X9r4VKvUBCXlL0o-206">
          <mxGeometry relative="1" as="geometry">
            <mxPoint x="2434.86" y="-85" as="targetPoint" />
            <mxPoint x="2399.86" y="-85" as="sourcePoint" />
            <Array as="points">
              <mxPoint x="2439.86" y="-73" />
              <mxPoint x="2479.86" y="-73" />
            </Array>
          </mxGeometry>
        </mxCell>
        <mxCell id="CZPg4X9r4VKvUBCXlL0o-208" value="" style="edgeStyle=orthogonalEdgeStyle;html=1;verticalAlign=bottom;endArrow=open;endSize=8;strokeColor=#ff0000;rounded=0;exitX=1;exitY=0.5;exitDx=0;exitDy=0;" edge="1" parent="1" source="CZPg4X9r4VKvUBCXlL0o-154" target="CZPg4X9r4VKvUBCXlL0o-206">
          <mxGeometry relative="1" as="geometry">
            <mxPoint x="2394.86" y="150" as="targetPoint" />
            <mxPoint x="2359.86" y="150" as="sourcePoint" />
            <Array as="points">
              <mxPoint x="2519.86" y="235" />
            </Array>
          </mxGeometry>
        </mxCell>
        <mxCell id="CZPg4X9r4VKvUBCXlL0o-209" value="Zurück-Button gedrückt" style="rounded=1;whiteSpace=wrap;html=1;arcSize=40;fontColor=#000000;fillColor=#ffffc0;strokeColor=#ff0000;" vertex="1" parent="1">
          <mxGeometry x="122.36" y="365" width="135" height="40" as="geometry" />
        </mxCell>
        <mxCell id="CZPg4X9r4VKvUBCXlL0o-210" value="PhotoComparisonViewController schließen" style="rounded=1;whiteSpace=wrap;html=1;arcSize=40;fontColor=#000000;fillColor=#ffffc0;strokeColor=#ff0000;" vertex="1" parent="1">
          <mxGeometry x="94.86" y="290" width="190" height="40" as="geometry" />
        </mxCell>
        <mxCell id="CZPg4X9r4VKvUBCXlL0o-211" value="" style="edgeStyle=orthogonalEdgeStyle;html=1;verticalAlign=bottom;endArrow=open;endSize=8;strokeColor=#ff0000;rounded=0;entryX=0.5;entryY=1;entryDx=0;entryDy=0;exitX=0.5;exitY=0;exitDx=0;exitDy=0;" edge="1" parent="1" source="CZPg4X9r4VKvUBCXlL0o-113" target="CZPg4X9r4VKvUBCXlL0o-209">
          <mxGeometry relative="1" as="geometry">
            <mxPoint x="282.36" y="404.30999999999995" as="targetPoint" />
            <mxPoint x="317.36" y="404.30999999999995" as="sourcePoint" />
          </mxGeometry>
        </mxCell>
        <mxCell id="CZPg4X9r4VKvUBCXlL0o-212" value="" style="edgeStyle=orthogonalEdgeStyle;html=1;verticalAlign=bottom;endArrow=open;endSize=8;strokeColor=#ff0000;rounded=0;entryX=0.5;entryY=1;entryDx=0;entryDy=0;exitX=0.5;exitY=0;exitDx=0;exitDy=0;" edge="1" parent="1" source="CZPg4X9r4VKvUBCXlL0o-209" target="CZPg4X9r4VKvUBCXlL0o-210">
          <mxGeometry relative="1" as="geometry">
            <mxPoint x="282.36" y="349.30999999999995" as="targetPoint" />
            <mxPoint x="317.36" y="349.30999999999995" as="sourcePoint" />
          </mxGeometry>
        </mxCell>
        <mxCell id="CZPg4X9r4VKvUBCXlL0o-213" value="" style="edgeStyle=orthogonalEdgeStyle;html=1;verticalAlign=bottom;endArrow=open;endSize=8;strokeColor=#ff0000;rounded=0;exitX=0.5;exitY=0;exitDx=0;exitDy=0;" edge="1" parent="1" source="CZPg4X9r4VKvUBCXlL0o-210" target="CZPg4X9r4VKvUBCXlL0o-68">
          <mxGeometry relative="1" as="geometry">
            <mxPoint x="29.86" y="210" as="targetPoint" />
            <mxPoint x="64.86" y="210" as="sourcePoint" />
            <Array as="points">
              <mxPoint x="189.86" y="240" />
              <mxPoint x="9.86" y="240" />
              <mxPoint x="9.86" y="-280" />
              <mxPoint x="519.86" y="-280" />
            </Array>
          </mxGeometry>
        </mxCell>
      </root>
    </mxGraphModel>
  </diagram>
</mxfile>
